<svg xmlns="http://www.w3.org/2000/svg" viewBox="0 0 550 73" height="100" width="550">
  <defs>
    <linearGradient gradientUnits="userSpaceOnUse" gradientTransform="scale(1.17687 .84971)" id="a" y2="84.05" x2="16.138" y1="57.307" x1="16.138">
      <stop offset="0%" stop-color="#D22929"/>
      <stop offset="100%" stop-color="#B71717"/>
    </linearGradient>
    <linearGradient gradientUnits="userSpaceOnUse" gradientTransform="scale(1.06754 .93673)" id="b" y2="56.931" x2="28.465" y1="0" x1="28.465">
      <stop offset="0%" stop-color="#E7762E"/>
      <stop offset="100%" stop-color="#E7562E"/>
    </linearGradient>
    <linearGradient gradientUnits="userSpaceOnUse" gradientTransform="scale(1.84744 .54129)" id="c" y2="133.939" x2="108.091" y1="0" x1="108.091">
      <stop offset="0%" stop-color="#E7762E"/>
      <stop offset="100%" stop-color="#E7562E"/>
    </linearGradient>
  </defs>
  <g fill="none" fill-rule="evenodd">
    <path d="M3.281 67.784l-.025 7.3 31.473-.106V48.694z" transform="matrix(1 0 0 -1 1.96 120.112)" fill="url(#a)"/>
    <path d="M1.502 0C.672 0 0 .673 0 1.504v46.108c.09 1.525.013 3.114 4.868 5.716 0 0-4.758-4.609 2.729-4.634h53.179V0z" fill="url(#b)" transform="translate(1.96)"/>
    <path d="M246.36 0v54.104c.28 2.158.672 3.313 1.085 4.329 1.152.294 2.098.622 3.256 1.082 1.06-.46 1.989-.788 3.256-1.082.233-1.016.608-2.17 1.085-4.329V0h13.023v54.104c0 6.399-1.467 10.984-4.34 14.068-2.997 2.846-7.334 4.328-13.024 4.328-11.593 0-17.365-6.067-17.365-18.396V0zM107.443 0v12.985h-18.45v15.15h16.28V42.2h-16.28v29.217H75.97V0zm17.365 0v58.433h18.45v12.985h-31.474V0zm51.008 0l13.023 71.418h-14.108l-2.17-14.067h-9.768l-2.17 14.067h-14.11L159.537 0zm33.644 0c2.878 0 5.483.36 7.597 1.082 2.634.714 4.678 1.91 6.512 3.246 1.595 2.017 2.93 4.206 4.34 6.493.503 3.117.981 6.418 1.086 10.82-.105 4.354-.731 8.322-2.17 11.904-1.067 2.574-2.98 5.037-5.427 6.492l9.768 31.38h-14.11l-7.596-28.133h-3.256v28.134h-13.023V0zm78.14 0l6.512 19.478 4.341 14.067h1.085l4.342-15.15L310.39 0h13.024v71.418H310.39V37.873h-1.085l-3.256 10.821-2.17 8.657h-9.768l-2.17-8.657-3.256-10.82H287.6v33.544h-13.023V0zM168.22 18.396l-2.172 14.067-1.085 11.903h6.512l-1.085-11.903zm40.155-5.41h-2.171v17.313h2.17c1.017 0 1.977-.124 3.256 0 .503-.616 1.308-1.091 2.171-2.165.577-.334 1.142-1.267 1.085-2.164.88-1.425 1.086-2.956 1.086-4.328 0-3.343-.669-5.402-2.171-6.493-1.171-1.513-2.902-2.164-5.426-2.164z" fill="url(#c)" transform="translate(1.96)"/>
  </g>
  <path d="M362.94-13.5v100" fill="none" stroke="#a0aec0" stroke-width="2"/>
  <g clip-rule="evenodd" fill="#718096" fill-rule="evenodd" stroke-linejoin="round" stroke-miterlimit="2">
    <path d="M422.666 2.828h7.43v59.944h-6.248l-.928-4.39h-.254c-1.773 1.772-3.461 3.123-5.234 3.967-1.773.76-4.053 1.182-6.754 1.182-2.111 0-4.222-.422-6.164-1.266-2.026-.844-3.799-2.11-5.403-3.8-1.604-1.688-2.87-3.798-3.8-6.416-.928-2.532-1.434-5.572-1.434-9.033 0-3.124.422-5.91 1.266-8.443.76-2.533 1.942-4.728 3.461-6.501 1.52-1.773 3.378-3.208 5.573-4.137 2.195-.929 4.728-1.435 7.514-1.435 2.11 0 4.052.337 5.994.928a15.586 15.586 0 014.981 2.955zm0 29.803c-2.617-2.955-5.74-4.475-9.371-4.475-1.52 0-2.955.254-4.39.76a10.586 10.586 0 00-3.8 2.618c-1.097 1.181-2.026 2.701-2.701 4.559-.676 1.857-1.013 4.052-1.013 6.67 0 2.701.337 4.98.928 6.838.591 1.942 1.436 3.461 2.533 4.643 1.013 1.267 2.195 2.111 3.546 2.702 1.266.591 2.617.844 3.968.844 4.222 0 7.683-1.857 10.3-5.487zM475.94 42.51c0 3.292-.507 6.247-1.52 8.864-1.013 2.702-2.364 4.897-4.137 6.67-1.857 1.773-3.883 3.208-6.247 4.137-2.364.844-4.897 1.35-7.683 1.35-2.786 0-5.32-.422-7.683-1.266-2.28-.929-4.306-2.195-6.079-3.884-1.688-1.773-3.04-3.883-4.052-6.416-.93-2.448-1.436-5.319-1.436-8.612 0-3.292.507-6.247 1.52-8.865 1.013-2.617 2.364-4.727 4.137-6.5 1.773-1.773 3.884-3.124 6.248-4.053 2.364-.929 4.896-1.435 7.682-1.435 2.787 0 5.32.422 7.599 1.266 2.364.844 4.39 2.11 6.163 3.8 1.689 1.688 3.04 3.799 3.968 6.331 1.013 2.449 1.52 5.32 1.52 8.612zm-7.767.421c0-2.617-.338-4.897-1.014-6.754-.675-1.857-1.604-3.377-2.701-4.56-1.098-1.181-2.28-2.025-3.715-2.616a12.865 12.865 0 00-4.306-.76c-1.435 0-2.87.253-4.306.675-1.435.422-2.617 1.267-3.714 2.364-1.098 1.098-1.942 2.617-2.618 4.475-.59 1.942-.928 4.306-.928 7.176 0 2.617.337 4.897 1.013 6.754.675 1.942 1.52 3.462 2.617 4.644a10.586 10.586 0 003.8 2.617 11.17 11.17 0 004.305.844c1.435 0 2.87-.253 4.306-.76 1.435-.422 2.617-1.266 3.715-2.448 1.097-1.097 1.941-2.617 2.617-4.559.59-1.857.929-4.221.929-7.092zM503.8 57.79c1.774 0 3.378-.168 4.729-.59a32.068 32.068 0 003.968-1.52l1.604 5.572c-3.04 1.52-6.67 2.28-10.891 2.28-2.87 0-5.572-.423-8.02-1.267-2.533-.844-4.729-2.11-6.586-3.884-1.942-1.688-3.377-3.799-4.475-6.416-1.097-2.533-1.604-5.488-1.604-8.95 0-3.123.507-5.994 1.52-8.527 1.013-2.532 2.448-4.727 4.221-6.5 1.773-1.773 3.968-3.124 6.501-4.053 2.533-.929 5.32-1.435 8.358-1.435 1.773 0 3.462.169 5.15.422 1.605.253 3.546.844 5.657 1.773l-1.688 5.657c-2.618-1.436-5.404-2.196-8.359-2.196-4.137 0-7.43 1.267-9.962 3.8-2.533 2.617-3.8 6.163-3.8 10.806 0 2.87.423 5.235 1.183 7.177.76 1.941 1.857 3.461 3.123 4.559 1.267 1.182 2.787 2.026 4.39 2.533 1.605.506 3.293.76 4.982.76zM544.58 30.52c-1.858-.928-3.547-1.52-5.066-1.857a20.96 20.96 0 00-4.56-.507c-2.701 0-4.727.507-5.994 1.52-1.266.929-1.942 2.28-1.942 3.884 0 1.182.423 2.195 1.351 3.124.929.844 2.786 1.688 5.657 2.532l2.533.76c3.799 1.098 6.585 2.617 8.611 4.39 1.858 1.773 2.87 4.137 2.87 7.177 0 3.63-1.35 6.5-3.967 8.696-2.702 2.195-6.417 3.292-11.23 3.292-2.532 0-4.98-.253-7.344-.675a26.4 26.4 0 01-5.995-1.857l1.773-5.826c1.604.76 3.377 1.435 5.32 1.858 1.941.506 3.883.76 5.825.76 2.533 0 4.559-.423 6.079-1.351 1.435-.93 2.195-2.364 2.195-4.475 0-1.773-.676-3.124-1.942-3.8-1.267-.844-3.124-1.519-5.572-2.279l-2.618-.844c-3.63-1.182-6.416-2.702-8.19-4.475-1.772-1.688-2.616-4.052-2.616-6.838 0-1.689.337-3.209 1.097-4.644s1.689-2.617 2.955-3.546a17.717 17.717 0 014.56-2.28c1.772-.506 3.63-.76 5.74-.76a32.3 32.3 0 016.163.592c2.027.337 4.053.928 5.995 1.773z" fill-rule="nonzero"/>
  </g>
</svg>
